<svg width="24" height="23" viewBox="0 0 24 23" fill="none" xmlns="http://www.w3.org/2000/svg">
<path d="M18.0019 0C21.3158 0 24 2.83854 24 6.34311V13.4791C24 16.9837 21.3158 19.8222 18.0019 19.8222H7.01031C6.36551 19.8222 5.72822 20.0442 5.21088 20.4565L2.39926 22.6845C1.73946 23.2079 0.794747 23.0651 0.299902 22.3674C0.104963 22.0899 0 21.7569 0 21.4159V6.35104C0 2.84648 2.68416 0.00793663 5.99812 0.00793663H17.9944L18.0019 0ZM18.0019 1.58578H6.00563C3.57639 1.58578 1.59701 3.6235 1.50704 6.16867V6.34311V21.408L4.31866 19.18C5.03843 18.6091 5.90816 18.2761 6.80788 18.2364H7.01782H18.0094C20.4386 18.2364 22.418 16.1987 22.508 13.6535V13.4791V6.34311C22.508 3.77415 20.5811 1.68092 18.1743 1.58578H18.0094H18.0019Z" fill="#222222"/>
</svg>
